#N canvas 227 23 333 168 10;
#X obj 12 94 catch~ \$0-dac-L;
#X obj 122 94 catch~ \$0-dac-R;
#X obj 12 138 dac~;
#N canvas 0 22 974 436 DROPS1 0;
#X obj 20 205 samphold~;
#X obj 20 188 noise~;
#X obj 133 205 samphold~;
#X obj 133 227 /~ 2;
#X obj 133 249 +~ 0.5;
#X obj 133 293 +~ 2500;
#X obj 71 100 metro;
#X obj 12 83 loadbang;
#X msg 12 105 seed 100;
#X obj 71 188 line~;
#X msg 71 166 0 \, 1 1;
#X obj 133 271 *~ 4500;
#X obj 71 144 + 250;
#X obj 71 122 random 750;
#X obj 20 310 vcf~ 28;
#X obj 20 354 *~;
#X obj 120 354 *~;
#X obj 153 315 *~ -1;
#X obj 153 337 +~ 1;
#X obj 120 376 throw~ \$0-dac-R;
#X obj 20 376 throw~ \$0-dac-L;
#X obj 20 332 *~;
#X obj 192 271 * -1;
#X obj 192 293 + 100;
#X obj 192 315 dbtorms;
#X obj 71 12 r \$0-drop;
#X obj 71 34 i;
#X obj 71 56 >= 1;
#X obj 71 78 change;
#X obj 250 205 samphold~;
#X obj 250 188 noise~;
#X obj 363 205 samphold~;
#X obj 363 227 /~ 2;
#X obj 363 249 +~ 0.5;
#X obj 363 293 +~ 2500;
#X obj 301 100 metro;
#X obj 242 83 loadbang;
#X obj 301 188 line~;
#X msg 301 166 0 \, 1 1;
#X obj 363 271 *~ 4500;
#X obj 301 144 + 250;
#X obj 301 122 random 750;
#X obj 250 310 vcf~ 28;
#X obj 250 354 *~;
#X obj 350 354 *~;
#X obj 303 315 *~ -1;
#X obj 303 337 +~ 1;
#X obj 350 376 throw~ \$0-dac-R;
#X obj 250 376 throw~ \$0-dac-L;
#X obj 250 332 *~;
#X obj 422 271 * -1;
#X obj 422 293 + 100;
#X obj 422 315 dbtorms;
#X obj 301 12 r \$0-drop;
#X obj 301 34 i;
#X obj 301 78 change;
#X msg 242 105 seed 200;
#X obj 301 56 >= 2;
#X obj 490 205 samphold~;
#X obj 490 188 noise~;
#X obj 603 205 samphold~;
#X obj 603 227 /~ 2;
#X obj 603 249 +~ 0.5;
#X obj 603 293 +~ 2500;
#X obj 541 100 metro;
#X obj 482 83 loadbang;
#X obj 541 188 line~;
#X msg 541 166 0 \, 1 1;
#X obj 603 271 *~ 4500;
#X obj 541 144 + 250;
#X obj 541 122 random 750;
#X obj 490 354 *~;
#X obj 590 354 *~;
#X obj 623 315 *~ -1;
#X obj 623 337 +~ 1;
#X obj 590 376 throw~ \$0-dac-R;
#X obj 490 376 throw~ \$0-dac-L;
#X obj 490 332 *~;
#X obj 662 271 * -1;
#X obj 662 293 + 100;
#X obj 662 315 dbtorms;
#X obj 541 12 r \$0-drop;
#X obj 541 34 i;
#X obj 541 78 change;
#X obj 720 205 samphold~;
#X obj 720 188 noise~;
#X obj 833 205 samphold~;
#X obj 833 227 /~ 2;
#X obj 833 249 +~ 0.5;
#X obj 833 293 +~ 2500;
#X obj 771 100 metro;
#X obj 712 83 loadbang;
#X obj 771 188 line~;
#X msg 771 166 0 \, 1 1;
#X obj 833 271 *~ 4500;
#X obj 771 144 + 250;
#X obj 771 122 random 750;
#X obj 720 354 *~;
#X obj 820 354 *~;
#X obj 773 315 *~ -1;
#X obj 773 337 +~ 1;
#X obj 820 376 throw~ \$0-dac-R;
#X obj 720 376 throw~ \$0-dac-L;
#X obj 720 332 *~;
#X obj 892 271 * -1;
#X obj 892 293 + 100;
#X obj 892 315 dbtorms;
#X obj 771 12 r \$0-drop;
#X obj 771 34 i;
#X obj 771 78 change;
#X msg 482 105 seed 300;
#X msg 712 105 seed 400;
#X obj 490 310 vcf~ 35;
#X obj 720 310 vcf~ 35;
#X obj 541 56 >= 3;
#X obj 771 56 >= 4;
#X obj 192 249 random 50;
#X obj 422 249 random 50;
#X obj 662 249 random 50;
#X obj 892 249 random 50;
#X connect 0 0 14 0;
#X connect 1 0 0 0;
#X connect 1 0 2 0;
#X connect 2 0 3 0;
#X connect 3 0 4 0;
#X connect 4 0 11 0;
#X connect 4 0 17 0;
#X connect 4 0 15 1;
#X connect 5 0 14 1;
#X connect 6 0 10 0;
#X connect 6 0 13 0;
#X connect 6 0 116 0;
#X connect 7 0 8 0;
#X connect 8 0 13 0;
#X connect 9 0 0 1;
#X connect 9 0 2 1;
#X connect 10 0 9 0;
#X connect 11 0 5 0;
#X connect 12 0 6 1;
#X connect 13 0 12 0;
#X connect 14 0 21 0;
#X connect 15 0 20 0;
#X connect 16 0 19 0;
#X connect 17 0 18 0;
#X connect 18 0 16 1;
#X connect 21 0 15 0;
#X connect 21 0 16 0;
#X connect 22 0 23 0;
#X connect 23 0 24 0;
#X connect 24 0 21 1;
#X connect 25 0 26 0;
#X connect 26 0 27 0;
#X connect 27 0 28 0;
#X connect 28 0 6 0;
#X connect 29 0 42 0;
#X connect 30 0 29 0;
#X connect 30 0 31 0;
#X connect 31 0 32 0;
#X connect 32 0 33 0;
#X connect 33 0 39 0;
#X connect 33 0 45 0;
#X connect 33 0 44 1;
#X connect 34 0 42 1;
#X connect 35 0 38 0;
#X connect 35 0 41 0;
#X connect 35 0 117 0;
#X connect 36 0 56 0;
#X connect 37 0 29 1;
#X connect 37 0 31 1;
#X connect 38 0 37 0;
#X connect 39 0 34 0;
#X connect 40 0 35 1;
#X connect 41 0 40 0;
#X connect 42 0 49 0;
#X connect 43 0 48 0;
#X connect 44 0 47 0;
#X connect 45 0 46 0;
#X connect 46 0 43 1;
#X connect 49 0 43 0;
#X connect 49 0 44 0;
#X connect 50 0 51 0;
#X connect 51 0 52 0;
#X connect 52 0 49 1;
#X connect 53 0 54 0;
#X connect 54 0 57 0;
#X connect 55 0 35 0;
#X connect 56 0 41 0;
#X connect 57 0 55 0;
#X connect 58 0 112 0;
#X connect 59 0 58 0;
#X connect 59 0 60 0;
#X connect 60 0 61 0;
#X connect 61 0 62 0;
#X connect 62 0 68 0;
#X connect 62 0 73 0;
#X connect 62 0 71 1;
#X connect 63 0 112 1;
#X connect 64 0 67 0;
#X connect 64 0 70 0;
#X connect 64 0 118 0;
#X connect 65 0 110 0;
#X connect 66 0 58 1;
#X connect 66 0 60 1;
#X connect 67 0 66 0;
#X connect 68 0 63 0;
#X connect 69 0 64 1;
#X connect 70 0 69 0;
#X connect 71 0 76 0;
#X connect 72 0 75 0;
#X connect 73 0 74 0;
#X connect 74 0 72 1;
#X connect 77 0 71 0;
#X connect 77 0 72 0;
#X connect 78 0 79 0;
#X connect 79 0 80 0;
#X connect 80 0 77 1;
#X connect 81 0 82 0;
#X connect 82 0 114 0;
#X connect 83 0 64 0;
#X connect 84 0 113 0;
#X connect 85 0 84 0;
#X connect 85 0 86 0;
#X connect 86 0 87 0;
#X connect 87 0 88 0;
#X connect 88 0 94 0;
#X connect 88 0 99 0;
#X connect 88 0 98 1;
#X connect 89 0 113 1;
#X connect 90 0 93 0;
#X connect 90 0 96 0;
#X connect 90 0 119 0;
#X connect 91 0 111 0;
#X connect 92 0 84 1;
#X connect 92 0 86 1;
#X connect 93 0 92 0;
#X connect 94 0 89 0;
#X connect 95 0 90 1;
#X connect 96 0 95 0;
#X connect 97 0 102 0;
#X connect 98 0 101 0;
#X connect 99 0 100 0;
#X connect 100 0 97 1;
#X connect 103 0 97 0;
#X connect 103 0 98 0;
#X connect 104 0 105 0;
#X connect 105 0 106 0;
#X connect 106 0 103 1;
#X connect 107 0 108 0;
#X connect 108 0 115 0;
#X connect 109 0 90 0;
#X connect 110 0 70 0;
#X connect 111 0 96 0;
#X connect 112 0 77 0;
#X connect 113 0 103 0;
#X connect 114 0 83 0;
#X connect 115 0 109 0;
#X connect 116 0 22 0;
#X connect 117 0 50 0;
#X connect 118 0 78 0;
#X connect 119 0 104 0;
#X restore 12 12 pd DROPS1;
#X obj 140 34 i;
#X obj 140 56 s \$0-drop;
#N canvas 0 22 974 436 DROPS2 0;
#X obj 20 205 samphold~;
#X obj 20 188 noise~;
#X obj 133 205 samphold~;
#X obj 133 227 /~ 2;
#X obj 133 249 +~ 0.5;
#X obj 133 293 +~ 2500;
#X obj 71 100 metro;
#X obj 12 83 loadbang;
#X obj 71 188 line~;
#X msg 71 166 0 \, 1 1;
#X obj 133 271 *~ 4500;
#X obj 71 144 + 250;
#X obj 71 122 random 750;
#X obj 20 354 *~;
#X obj 120 354 *~;
#X obj 153 315 *~ -1;
#X obj 153 337 +~ 1;
#X obj 120 376 throw~ \$0-dac-R;
#X obj 20 376 throw~ \$0-dac-L;
#X obj 20 332 *~;
#X obj 192 271 * -1;
#X obj 192 293 + 100;
#X obj 192 315 dbtorms;
#X obj 71 12 r \$0-drop;
#X obj 71 34 i;
#X obj 71 78 change;
#X obj 250 205 samphold~;
#X obj 250 188 noise~;
#X obj 363 205 samphold~;
#X obj 363 227 /~ 2;
#X obj 363 249 +~ 0.5;
#X obj 363 293 +~ 2500;
#X obj 301 100 metro;
#X obj 242 83 loadbang;
#X obj 301 188 line~;
#X msg 301 166 0 \, 1 1;
#X obj 363 271 *~ 4500;
#X obj 301 144 + 250;
#X obj 301 122 random 750;
#X obj 250 354 *~;
#X obj 350 354 *~;
#X obj 303 315 *~ -1;
#X obj 303 337 +~ 1;
#X obj 350 376 throw~ \$0-dac-R;
#X obj 250 376 throw~ \$0-dac-L;
#X obj 250 332 *~;
#X obj 422 271 * -1;
#X obj 422 293 + 100;
#X obj 422 315 dbtorms;
#X obj 301 12 r \$0-drop;
#X obj 301 34 i;
#X obj 301 78 change;
#X obj 490 205 samphold~;
#X obj 490 188 noise~;
#X obj 603 205 samphold~;
#X obj 603 227 /~ 2;
#X obj 603 249 +~ 0.5;
#X obj 603 293 +~ 2500;
#X obj 541 100 metro;
#X obj 482 83 loadbang;
#X obj 541 188 line~;
#X msg 541 166 0 \, 1 1;
#X obj 603 271 *~ 4500;
#X obj 541 144 + 250;
#X obj 541 122 random 750;
#X obj 490 354 *~;
#X obj 590 354 *~;
#X obj 623 315 *~ -1;
#X obj 623 337 +~ 1;
#X obj 590 376 throw~ \$0-dac-R;
#X obj 490 376 throw~ \$0-dac-L;
#X obj 490 332 *~;
#X obj 662 271 * -1;
#X obj 662 293 + 100;
#X obj 662 315 dbtorms;
#X obj 541 12 r \$0-drop;
#X obj 541 34 i;
#X obj 541 78 change;
#X obj 720 205 samphold~;
#X obj 720 188 noise~;
#X obj 833 205 samphold~;
#X obj 833 227 /~ 2;
#X obj 833 249 +~ 0.5;
#X obj 833 293 +~ 2500;
#X obj 771 100 metro;
#X obj 712 83 loadbang;
#X obj 771 188 line~;
#X msg 771 166 0 \, 1 1;
#X obj 833 271 *~ 4500;
#X obj 771 144 + 250;
#X obj 771 122 random 750;
#X obj 720 354 *~;
#X obj 820 354 *~;
#X obj 773 315 *~ -1;
#X obj 773 337 +~ 1;
#X obj 820 376 throw~ \$0-dac-R;
#X obj 720 376 throw~ \$0-dac-L;
#X obj 720 332 *~;
#X obj 892 271 * -1;
#X obj 892 293 + 100;
#X obj 892 315 dbtorms;
#X obj 771 12 r \$0-drop;
#X obj 771 34 i;
#X obj 771 78 change;
#X obj 71 56 >= 5;
#X obj 301 56 >= 6;
#X obj 541 56 >= 7;
#X obj 771 56 >= 8;
#X msg 12 105 seed 500;
#X msg 242 105 seed 600;
#X msg 482 105 seed 700;
#X msg 712 105 seed 800;
#X obj 20 310 vcf~ 42;
#X obj 250 310 vcf~ 42;
#X obj 490 310 vcf~ 49;
#X obj 720 310 vcf~ 49;
#X obj 192 249 random 50;
#X obj 422 249 random 50;
#X obj 662 249 random 50;
#X obj 892 249 random 50;
#X connect 0 0 112 0;
#X connect 1 0 0 0;
#X connect 1 0 2 0;
#X connect 2 0 3 0;
#X connect 3 0 4 0;
#X connect 4 0 10 0;
#X connect 4 0 15 0;
#X connect 4 0 13 1;
#X connect 5 0 112 1;
#X connect 6 0 9 0;
#X connect 6 0 12 0;
#X connect 6 0 116 0;
#X connect 7 0 108 0;
#X connect 8 0 0 1;
#X connect 8 0 2 1;
#X connect 9 0 8 0;
#X connect 10 0 5 0;
#X connect 11 0 6 1;
#X connect 12 0 11 0;
#X connect 13 0 18 0;
#X connect 14 0 17 0;
#X connect 15 0 16 0;
#X connect 16 0 14 1;
#X connect 19 0 13 0;
#X connect 19 0 14 0;
#X connect 20 0 21 0;
#X connect 21 0 22 0;
#X connect 22 0 19 1;
#X connect 23 0 24 0;
#X connect 24 0 104 0;
#X connect 25 0 6 0;
#X connect 26 0 113 0;
#X connect 27 0 26 0;
#X connect 27 0 28 0;
#X connect 28 0 29 0;
#X connect 29 0 30 0;
#X connect 30 0 36 0;
#X connect 30 0 41 0;
#X connect 30 0 40 1;
#X connect 31 0 113 1;
#X connect 32 0 35 0;
#X connect 32 0 38 0;
#X connect 32 0 117 0;
#X connect 33 0 109 0;
#X connect 34 0 26 1;
#X connect 34 0 28 1;
#X connect 35 0 34 0;
#X connect 36 0 31 0;
#X connect 37 0 32 1;
#X connect 38 0 37 0;
#X connect 39 0 44 0;
#X connect 40 0 43 0;
#X connect 41 0 42 0;
#X connect 42 0 39 1;
#X connect 45 0 39 0;
#X connect 45 0 40 0;
#X connect 46 0 47 0;
#X connect 47 0 48 0;
#X connect 48 0 45 1;
#X connect 49 0 50 0;
#X connect 50 0 105 0;
#X connect 51 0 32 0;
#X connect 52 0 114 0;
#X connect 53 0 52 0;
#X connect 53 0 54 0;
#X connect 54 0 55 0;
#X connect 55 0 56 0;
#X connect 56 0 62 0;
#X connect 56 0 67 0;
#X connect 56 0 65 1;
#X connect 57 0 114 1;
#X connect 58 0 61 0;
#X connect 58 0 64 0;
#X connect 58 0 118 0;
#X connect 59 0 110 0;
#X connect 60 0 52 1;
#X connect 60 0 54 1;
#X connect 61 0 60 0;
#X connect 62 0 57 0;
#X connect 63 0 58 1;
#X connect 64 0 63 0;
#X connect 65 0 70 0;
#X connect 66 0 69 0;
#X connect 67 0 68 0;
#X connect 68 0 66 1;
#X connect 71 0 65 0;
#X connect 71 0 66 0;
#X connect 72 0 73 0;
#X connect 73 0 74 0;
#X connect 74 0 71 1;
#X connect 75 0 76 0;
#X connect 76 0 106 0;
#X connect 77 0 58 0;
#X connect 78 0 115 0;
#X connect 79 0 78 0;
#X connect 79 0 80 0;
#X connect 80 0 81 0;
#X connect 81 0 82 0;
#X connect 82 0 88 0;
#X connect 82 0 93 0;
#X connect 82 0 92 1;
#X connect 83 0 115 1;
#X connect 84 0 87 0;
#X connect 84 0 90 0;
#X connect 84 0 119 0;
#X connect 85 0 111 0;
#X connect 86 0 78 1;
#X connect 86 0 80 1;
#X connect 87 0 86 0;
#X connect 88 0 83 0;
#X connect 89 0 84 1;
#X connect 90 0 89 0;
#X connect 91 0 96 0;
#X connect 92 0 95 0;
#X connect 93 0 94 0;
#X connect 94 0 91 1;
#X connect 97 0 91 0;
#X connect 97 0 92 0;
#X connect 98 0 99 0;
#X connect 99 0 100 0;
#X connect 100 0 97 1;
#X connect 101 0 102 0;
#X connect 102 0 107 0;
#X connect 103 0 84 0;
#X connect 104 0 25 0;
#X connect 105 0 51 0;
#X connect 106 0 77 0;
#X connect 107 0 103 0;
#X connect 108 0 12 0;
#X connect 109 0 38 0;
#X connect 110 0 64 0;
#X connect 111 0 90 0;
#X connect 112 0 19 0;
#X connect 113 0 45 0;
#X connect 114 0 71 0;
#X connect 115 0 97 0;
#X connect 116 0 20 0;
#X connect 117 0 46 0;
#X connect 118 0 72 0;
#X connect 119 0 98 0;
#X restore 12 32 pd DROPS2;
#N canvas 0 22 974 436 DROPS3 0;
#X obj 20 205 samphold~;
#X obj 20 188 noise~;
#X obj 133 205 samphold~;
#X obj 133 227 /~ 2;
#X obj 133 249 +~ 0.5;
#X obj 133 293 +~ 2500;
#X obj 71 100 metro;
#X obj 12 83 loadbang;
#X obj 71 188 line~;
#X msg 71 166 0 \, 1 1;
#X obj 133 271 *~ 4500;
#X obj 71 144 + 250;
#X obj 71 122 random 750;
#X obj 20 354 *~;
#X obj 120 354 *~;
#X obj 153 315 *~ -1;
#X obj 153 337 +~ 1;
#X obj 120 376 throw~ \$0-dac-R;
#X obj 20 376 throw~ \$0-dac-L;
#X obj 20 332 *~;
#X obj 192 271 * -1;
#X obj 192 293 + 100;
#X obj 192 315 dbtorms;
#X obj 192 249 random 40;
#X obj 71 12 r \$0-drop;
#X obj 71 34 i;
#X obj 71 78 change;
#X obj 250 205 samphold~;
#X obj 250 188 noise~;
#X obj 363 205 samphold~;
#X obj 363 227 /~ 2;
#X obj 363 249 +~ 0.5;
#X obj 363 293 +~ 2500;
#X obj 301 100 metro;
#X obj 242 83 loadbang;
#X obj 301 188 line~;
#X msg 301 166 0 \, 1 1;
#X obj 363 271 *~ 4500;
#X obj 301 144 + 250;
#X obj 301 122 random 750;
#X obj 250 354 *~;
#X obj 350 354 *~;
#X obj 303 315 *~ -1;
#X obj 303 337 +~ 1;
#X obj 350 376 throw~ \$0-dac-R;
#X obj 250 376 throw~ \$0-dac-L;
#X obj 250 332 *~;
#X obj 422 271 * -1;
#X obj 422 293 + 100;
#X obj 422 315 dbtorms;
#X obj 422 249 random 40;
#X obj 301 12 r \$0-drop;
#X obj 301 34 i;
#X obj 301 78 change;
#X obj 490 205 samphold~;
#X obj 490 188 noise~;
#X obj 603 205 samphold~;
#X obj 603 227 /~ 2;
#X obj 603 249 +~ 0.5;
#X obj 603 293 +~ 2500;
#X obj 541 100 metro;
#X obj 482 83 loadbang;
#X obj 541 188 line~;
#X msg 541 166 0 \, 1 1;
#X obj 603 271 *~ 4500;
#X obj 541 144 + 250;
#X obj 541 122 random 750;
#X obj 490 354 *~;
#X obj 590 354 *~;
#X obj 623 315 *~ -1;
#X obj 623 337 +~ 1;
#X obj 590 376 throw~ \$0-dac-R;
#X obj 490 376 throw~ \$0-dac-L;
#X obj 490 332 *~;
#X obj 662 271 * -1;
#X obj 662 293 + 100;
#X obj 662 315 dbtorms;
#X obj 662 249 random 40;
#X obj 541 12 r \$0-drop;
#X obj 541 34 i;
#X obj 541 78 change;
#X obj 720 205 samphold~;
#X obj 720 188 noise~;
#X obj 833 205 samphold~;
#X obj 833 227 /~ 2;
#X obj 833 249 +~ 0.5;
#X obj 833 293 +~ 2500;
#X obj 771 100 metro;
#X obj 712 83 loadbang;
#X obj 771 188 line~;
#X msg 771 166 0 \, 1 1;
#X obj 833 271 *~ 4500;
#X obj 771 144 + 250;
#X obj 771 122 random 750;
#X obj 720 354 *~;
#X obj 820 354 *~;
#X obj 773 315 *~ -1;
#X obj 773 337 +~ 1;
#X obj 820 376 throw~ \$0-dac-R;
#X obj 720 376 throw~ \$0-dac-L;
#X obj 720 332 *~;
#X obj 892 271 * -1;
#X obj 892 293 + 100;
#X obj 892 315 dbtorms;
#X obj 892 249 random 40;
#X obj 771 12 r \$0-drop;
#X obj 771 34 i;
#X obj 771 78 change;
#X obj 20 310 vcf~ 56;
#X obj 71 56 >= 9;
#X obj 301 56 >= 10;
#X obj 541 56 >= 11;
#X obj 771 56 >= 12;
#X msg 12 105 seed 150;
#X obj 250 310 vcf~ 56;
#X obj 490 310 vcf~ 63;
#X obj 720 310 vcf~ 63;
#X msg 242 105 seed 250;
#X msg 482 105 seed 350;
#X msg 712 105 seed 450;
#X connect 0 0 108 0;
#X connect 1 0 0 0;
#X connect 1 0 2 0;
#X connect 2 0 3 0;
#X connect 3 0 4 0;
#X connect 4 0 10 0;
#X connect 4 0 15 0;
#X connect 4 0 13 1;
#X connect 5 0 108 1;
#X connect 6 0 9 0;
#X connect 6 0 12 0;
#X connect 6 0 23 0;
#X connect 7 0 113 0;
#X connect 8 0 0 1;
#X connect 8 0 2 1;
#X connect 9 0 8 0;
#X connect 10 0 5 0;
#X connect 11 0 6 1;
#X connect 12 0 11 0;
#X connect 13 0 18 0;
#X connect 14 0 17 0;
#X connect 15 0 16 0;
#X connect 16 0 14 1;
#X connect 19 0 13 0;
#X connect 19 0 14 0;
#X connect 20 0 21 0;
#X connect 21 0 22 0;
#X connect 22 0 19 1;
#X connect 23 0 20 0;
#X connect 24 0 25 0;
#X connect 25 0 109 0;
#X connect 26 0 6 0;
#X connect 27 0 114 0;
#X connect 28 0 27 0;
#X connect 28 0 29 0;
#X connect 29 0 30 0;
#X connect 30 0 31 0;
#X connect 31 0 37 0;
#X connect 31 0 42 0;
#X connect 31 0 41 1;
#X connect 32 0 114 1;
#X connect 33 0 36 0;
#X connect 33 0 39 0;
#X connect 33 0 50 0;
#X connect 34 0 117 0;
#X connect 35 0 27 1;
#X connect 35 0 29 1;
#X connect 36 0 35 0;
#X connect 37 0 32 0;
#X connect 38 0 33 1;
#X connect 39 0 38 0;
#X connect 40 0 45 0;
#X connect 41 0 44 0;
#X connect 42 0 43 0;
#X connect 43 0 40 1;
#X connect 46 0 40 0;
#X connect 46 0 41 0;
#X connect 47 0 48 0;
#X connect 48 0 49 0;
#X connect 49 0 46 1;
#X connect 50 0 47 0;
#X connect 51 0 52 0;
#X connect 52 0 110 0;
#X connect 53 0 33 0;
#X connect 54 0 115 0;
#X connect 55 0 54 0;
#X connect 55 0 56 0;
#X connect 56 0 57 0;
#X connect 57 0 58 0;
#X connect 58 0 64 0;
#X connect 58 0 69 0;
#X connect 58 0 67 1;
#X connect 59 0 115 1;
#X connect 60 0 63 0;
#X connect 60 0 66 0;
#X connect 60 0 77 0;
#X connect 61 0 118 0;
#X connect 62 0 54 1;
#X connect 62 0 56 1;
#X connect 63 0 62 0;
#X connect 64 0 59 0;
#X connect 65 0 60 1;
#X connect 66 0 65 0;
#X connect 67 0 72 0;
#X connect 68 0 71 0;
#X connect 69 0 70 0;
#X connect 70 0 68 1;
#X connect 73 0 67 0;
#X connect 73 0 68 0;
#X connect 74 0 75 0;
#X connect 75 0 76 0;
#X connect 76 0 73 1;
#X connect 77 0 74 0;
#X connect 78 0 79 0;
#X connect 79 0 111 0;
#X connect 80 0 60 0;
#X connect 81 0 116 0;
#X connect 82 0 81 0;
#X connect 82 0 83 0;
#X connect 83 0 84 0;
#X connect 84 0 85 0;
#X connect 85 0 91 0;
#X connect 85 0 96 0;
#X connect 85 0 95 1;
#X connect 86 0 116 1;
#X connect 87 0 90 0;
#X connect 87 0 93 0;
#X connect 87 0 104 0;
#X connect 88 0 119 0;
#X connect 89 0 81 1;
#X connect 89 0 83 1;
#X connect 90 0 89 0;
#X connect 91 0 86 0;
#X connect 92 0 87 1;
#X connect 93 0 92 0;
#X connect 94 0 99 0;
#X connect 95 0 98 0;
#X connect 96 0 97 0;
#X connect 97 0 94 1;
#X connect 100 0 94 0;
#X connect 100 0 95 0;
#X connect 101 0 102 0;
#X connect 102 0 103 0;
#X connect 103 0 100 1;
#X connect 104 0 101 0;
#X connect 105 0 106 0;
#X connect 106 0 112 0;
#X connect 107 0 87 0;
#X connect 108 0 19 0;
#X connect 109 0 26 0;
#X connect 110 0 53 0;
#X connect 111 0 80 0;
#X connect 112 0 107 0;
#X connect 113 0 12 0;
#X connect 114 0 46 0;
#X connect 115 0 73 0;
#X connect 116 0 100 0;
#X connect 117 0 39 0;
#X connect 118 0 66 0;
#X connect 119 0 93 0;
#X restore 12 52 pd DROPS3;
#N canvas 0 22 974 436 DROPS4 0;
#X obj 20 205 samphold~;
#X obj 20 188 noise~;
#X obj 133 205 samphold~;
#X obj 133 227 /~ 2;
#X obj 133 249 +~ 0.5;
#X obj 133 293 +~ 2500;
#X obj 71 100 metro;
#X obj 12 83 loadbang;
#X obj 71 188 line~;
#X msg 71 166 0 \, 1 1;
#X obj 133 271 *~ 4500;
#X obj 71 144 + 250;
#X obj 71 122 random 750;
#X obj 20 354 *~;
#X obj 120 354 *~;
#X obj 153 315 *~ -1;
#X obj 153 337 +~ 1;
#X obj 120 376 throw~ \$0-dac-R;
#X obj 20 376 throw~ \$0-dac-L;
#X obj 20 332 *~;
#X obj 192 271 * -1;
#X obj 192 293 + 100;
#X obj 192 315 dbtorms;
#X obj 71 12 r \$0-drop;
#X obj 71 34 i;
#X obj 71 78 change;
#X obj 250 205 samphold~;
#X obj 250 188 noise~;
#X obj 363 205 samphold~;
#X obj 363 227 /~ 2;
#X obj 363 249 +~ 0.5;
#X obj 363 293 +~ 2500;
#X obj 301 100 metro;
#X obj 242 83 loadbang;
#X obj 301 188 line~;
#X msg 301 166 0 \, 1 1;
#X obj 363 271 *~ 4500;
#X obj 301 144 + 250;
#X obj 301 122 random 750;
#X obj 250 354 *~;
#X obj 350 354 *~;
#X obj 303 315 *~ -1;
#X obj 303 337 +~ 1;
#X obj 350 376 throw~ \$0-dac-R;
#X obj 250 376 throw~ \$0-dac-L;
#X obj 250 332 *~;
#X obj 422 271 * -1;
#X obj 422 293 + 100;
#X obj 422 315 dbtorms;
#X obj 301 12 r \$0-drop;
#X obj 301 34 i;
#X obj 301 78 change;
#X obj 490 205 samphold~;
#X obj 490 188 noise~;
#X obj 603 205 samphold~;
#X obj 603 227 /~ 2;
#X obj 603 249 +~ 0.5;
#X obj 603 293 +~ 2500;
#X obj 541 100 metro;
#X obj 482 83 loadbang;
#X obj 541 188 line~;
#X msg 541 166 0 \, 1 1;
#X obj 603 271 *~ 4500;
#X obj 541 144 + 250;
#X obj 541 122 random 750;
#X obj 490 354 *~;
#X obj 590 354 *~;
#X obj 623 315 *~ -1;
#X obj 623 337 +~ 1;
#X obj 590 376 throw~ \$0-dac-R;
#X obj 490 376 throw~ \$0-dac-L;
#X obj 490 332 *~;
#X obj 662 271 * -1;
#X obj 662 293 + 100;
#X obj 662 315 dbtorms;
#X obj 541 12 r \$0-drop;
#X obj 541 34 i;
#X obj 541 78 change;
#X obj 720 205 samphold~;
#X obj 720 188 noise~;
#X obj 833 205 samphold~;
#X obj 833 227 /~ 2;
#X obj 833 249 +~ 0.5;
#X obj 833 293 +~ 2500;
#X obj 771 100 metro;
#X obj 712 83 loadbang;
#X obj 771 188 line~;
#X msg 771 166 0 \, 1 1;
#X obj 833 271 *~ 4500;
#X obj 771 144 + 250;
#X obj 771 122 random 750;
#X obj 720 354 *~;
#X obj 820 354 *~;
#X obj 773 315 *~ -1;
#X obj 773 337 +~ 1;
#X obj 820 376 throw~ \$0-dac-R;
#X obj 720 376 throw~ \$0-dac-L;
#X obj 720 332 *~;
#X obj 892 271 * -1;
#X obj 892 293 + 100;
#X obj 892 315 dbtorms;
#X obj 771 12 r \$0-drop;
#X obj 771 34 i;
#X obj 771 78 change;
#X obj 20 310 vcf~ 28;
#X obj 250 310 vcf~ 28;
#X obj 720 310 vcf~ 35;
#X obj 490 310 vcf~ 35;
#X obj 71 56 >= 13;
#X obj 301 56 >= 14;
#X obj 541 56 >= 15;
#X obj 771 56 >= 16;
#X msg 12 105 seed 550;
#X msg 242 105 seed 650;
#X msg 482 105 seed 750;
#X msg 712 105 seed 850;
#X obj 192 249 random 50;
#X obj 422 249 random 50;
#X obj 662 249 random 50;
#X obj 892 249 random 50;
#X connect 0 0 104 0;
#X connect 1 0 0 0;
#X connect 1 0 2 0;
#X connect 2 0 3 0;
#X connect 3 0 4 0;
#X connect 4 0 10 0;
#X connect 4 0 15 0;
#X connect 4 0 13 1;
#X connect 5 0 104 1;
#X connect 6 0 9 0;
#X connect 6 0 12 0;
#X connect 6 0 116 0;
#X connect 7 0 112 0;
#X connect 8 0 0 1;
#X connect 8 0 2 1;
#X connect 9 0 8 0;
#X connect 10 0 5 0;
#X connect 11 0 6 1;
#X connect 12 0 11 0;
#X connect 13 0 18 0;
#X connect 14 0 17 0;
#X connect 15 0 16 0;
#X connect 16 0 14 1;
#X connect 19 0 13 0;
#X connect 19 0 14 0;
#X connect 20 0 21 0;
#X connect 21 0 22 0;
#X connect 22 0 19 1;
#X connect 23 0 24 0;
#X connect 24 0 108 0;
#X connect 25 0 6 0;
#X connect 26 0 105 0;
#X connect 27 0 26 0;
#X connect 27 0 28 0;
#X connect 28 0 29 0;
#X connect 29 0 30 0;
#X connect 30 0 36 0;
#X connect 30 0 41 0;
#X connect 30 0 40 1;
#X connect 31 0 105 1;
#X connect 32 0 35 0;
#X connect 32 0 38 0;
#X connect 32 0 117 0;
#X connect 33 0 113 0;
#X connect 34 0 26 1;
#X connect 34 0 28 1;
#X connect 35 0 34 0;
#X connect 36 0 31 0;
#X connect 37 0 32 1;
#X connect 38 0 37 0;
#X connect 39 0 44 0;
#X connect 40 0 43 0;
#X connect 41 0 42 0;
#X connect 42 0 39 1;
#X connect 45 0 39 0;
#X connect 45 0 40 0;
#X connect 46 0 47 0;
#X connect 47 0 48 0;
#X connect 48 0 45 1;
#X connect 49 0 50 0;
#X connect 50 0 109 0;
#X connect 51 0 32 0;
#X connect 52 0 107 0;
#X connect 53 0 52 0;
#X connect 53 0 54 0;
#X connect 54 0 55 0;
#X connect 55 0 56 0;
#X connect 56 0 62 0;
#X connect 56 0 67 0;
#X connect 56 0 65 1;
#X connect 57 0 107 1;
#X connect 58 0 61 0;
#X connect 58 0 64 0;
#X connect 58 0 118 0;
#X connect 59 0 114 0;
#X connect 60 0 52 1;
#X connect 60 0 54 1;
#X connect 61 0 60 0;
#X connect 62 0 57 0;
#X connect 63 0 58 1;
#X connect 64 0 63 0;
#X connect 65 0 70 0;
#X connect 66 0 69 0;
#X connect 67 0 68 0;
#X connect 68 0 66 1;
#X connect 71 0 65 0;
#X connect 71 0 66 0;
#X connect 72 0 73 0;
#X connect 73 0 74 0;
#X connect 74 0 71 1;
#X connect 75 0 76 0;
#X connect 76 0 110 0;
#X connect 77 0 58 0;
#X connect 78 0 106 0;
#X connect 79 0 78 0;
#X connect 79 0 80 0;
#X connect 80 0 81 0;
#X connect 81 0 82 0;
#X connect 82 0 88 0;
#X connect 82 0 93 0;
#X connect 82 0 92 1;
#X connect 83 0 106 1;
#X connect 84 0 87 0;
#X connect 84 0 90 0;
#X connect 84 0 119 0;
#X connect 85 0 115 0;
#X connect 86 0 78 1;
#X connect 86 0 80 1;
#X connect 87 0 86 0;
#X connect 88 0 83 0;
#X connect 89 0 84 1;
#X connect 90 0 89 0;
#X connect 91 0 96 0;
#X connect 92 0 95 0;
#X connect 93 0 94 0;
#X connect 94 0 91 1;
#X connect 97 0 91 0;
#X connect 97 0 92 0;
#X connect 98 0 99 0;
#X connect 99 0 100 0;
#X connect 100 0 97 1;
#X connect 101 0 102 0;
#X connect 102 0 111 0;
#X connect 103 0 84 0;
#X connect 104 0 19 0;
#X connect 105 0 45 0;
#X connect 106 0 97 0;
#X connect 107 0 71 0;
#X connect 108 0 25 0;
#X connect 109 0 51 0;
#X connect 110 0 77 0;
#X connect 111 0 103 0;
#X connect 112 0 12 0;
#X connect 113 0 38 0;
#X connect 114 0 64 0;
#X connect 115 0 90 0;
#X connect 116 0 20 0;
#X connect 117 0 46 0;
#X connect 118 0 72 0;
#X connect 119 0 98 0;
#X restore 12 72 pd DROPS4;
#N canvas 0 22 974 436 DROPS1 0;
#X obj 20 205 samphold~;
#X obj 20 188 noise~;
#X obj 133 205 samphold~;
#X obj 133 227 /~ 2;
#X obj 133 249 +~ 0.5;
#X obj 133 293 +~ 2500;
#X obj 71 100 metro;
#X obj 12 83 loadbang;
#X obj 71 188 line~;
#X msg 71 166 0 \, 1 1;
#X obj 133 271 *~ 4500;
#X obj 71 144 + 250;
#X obj 71 122 random 750;
#X obj 20 310 vcf~ 28;
#X obj 20 354 *~;
#X obj 120 354 *~;
#X obj 153 315 *~ -1;
#X obj 153 337 +~ 1;
#X obj 120 376 throw~ \$0-dac-R;
#X obj 20 376 throw~ \$0-dac-L;
#X obj 20 332 *~;
#X obj 192 271 * -1;
#X obj 192 293 + 100;
#X obj 192 315 dbtorms;
#X obj 71 12 r \$0-drop;
#X obj 71 34 i;
#X obj 71 78 change;
#X obj 250 205 samphold~;
#X obj 250 188 noise~;
#X obj 363 205 samphold~;
#X obj 363 227 /~ 2;
#X obj 363 249 +~ 0.5;
#X obj 363 293 +~ 2500;
#X obj 301 100 metro;
#X obj 242 83 loadbang;
#X obj 301 188 line~;
#X msg 301 166 0 \, 1 1;
#X obj 363 271 *~ 4500;
#X obj 301 144 + 250;
#X obj 301 122 random 750;
#X obj 250 310 vcf~ 28;
#X obj 250 354 *~;
#X obj 350 354 *~;
#X obj 303 315 *~ -1;
#X obj 303 337 +~ 1;
#X obj 350 376 throw~ \$0-dac-R;
#X obj 250 376 throw~ \$0-dac-L;
#X obj 250 332 *~;
#X obj 422 271 * -1;
#X obj 422 293 + 100;
#X obj 422 315 dbtorms;
#X obj 301 12 r \$0-drop;
#X obj 301 34 i;
#X obj 301 78 change;
#X obj 490 205 samphold~;
#X obj 490 188 noise~;
#X obj 603 205 samphold~;
#X obj 603 227 /~ 2;
#X obj 603 249 +~ 0.5;
#X obj 603 293 +~ 2500;
#X obj 541 100 metro;
#X obj 482 83 loadbang;
#X obj 541 188 line~;
#X msg 541 166 0 \, 1 1;
#X obj 603 271 *~ 4500;
#X obj 541 144 + 250;
#X obj 541 122 random 750;
#X obj 490 354 *~;
#X obj 590 354 *~;
#X obj 623 315 *~ -1;
#X obj 623 337 +~ 1;
#X obj 590 376 throw~ \$0-dac-R;
#X obj 490 376 throw~ \$0-dac-L;
#X obj 490 332 *~;
#X obj 662 271 * -1;
#X obj 662 293 + 100;
#X obj 662 315 dbtorms;
#X obj 541 12 r \$0-drop;
#X obj 541 34 i;
#X obj 541 78 change;
#X obj 720 205 samphold~;
#X obj 720 188 noise~;
#X obj 833 205 samphold~;
#X obj 833 227 /~ 2;
#X obj 833 249 +~ 0.5;
#X obj 833 293 +~ 2500;
#X obj 771 100 metro;
#X obj 712 83 loadbang;
#X obj 771 188 line~;
#X msg 771 166 0 \, 1 1;
#X obj 833 271 *~ 4500;
#X obj 771 144 + 250;
#X obj 771 122 random 750;
#X obj 720 354 *~;
#X obj 820 354 *~;
#X obj 773 315 *~ -1;
#X obj 773 337 +~ 1;
#X obj 820 376 throw~ \$0-dac-R;
#X obj 720 376 throw~ \$0-dac-L;
#X obj 720 332 *~;
#X obj 892 271 * -1;
#X obj 892 293 + 100;
#X obj 892 315 dbtorms;
#X obj 771 12 r \$0-drop;
#X obj 771 34 i;
#X obj 771 78 change;
#X obj 490 310 vcf~ 35;
#X obj 720 310 vcf~ 35;
#X obj 71 56 >= 17;
#X obj 301 56 >= 18;
#X obj 541 56 >= 19;
#X obj 771 56 >= 20;
#X msg 12 105 seed 105;
#X msg 242 105 seed 205;
#X msg 482 105 seed 305;
#X msg 712 105 seed 405;
#X obj 192 249 random 50;
#X obj 422 249 random 50;
#X obj 662 249 random 50;
#X obj 892 249 random 50;
#X connect 0 0 13 0;
#X connect 1 0 0 0;
#X connect 1 0 2 0;
#X connect 2 0 3 0;
#X connect 3 0 4 0;
#X connect 4 0 10 0;
#X connect 4 0 16 0;
#X connect 4 0 14 1;
#X connect 5 0 13 1;
#X connect 6 0 9 0;
#X connect 6 0 12 0;
#X connect 6 0 116 0;
#X connect 7 0 112 0;
#X connect 8 0 0 1;
#X connect 8 0 2 1;
#X connect 9 0 8 0;
#X connect 10 0 5 0;
#X connect 11 0 6 1;
#X connect 12 0 11 0;
#X connect 13 0 20 0;
#X connect 14 0 19 0;
#X connect 15 0 18 0;
#X connect 16 0 17 0;
#X connect 17 0 15 1;
#X connect 20 0 14 0;
#X connect 20 0 15 0;
#X connect 21 0 22 0;
#X connect 22 0 23 0;
#X connect 23 0 20 1;
#X connect 24 0 25 0;
#X connect 25 0 108 0;
#X connect 26 0 6 0;
#X connect 27 0 40 0;
#X connect 28 0 27 0;
#X connect 28 0 29 0;
#X connect 29 0 30 0;
#X connect 30 0 31 0;
#X connect 31 0 37 0;
#X connect 31 0 43 0;
#X connect 31 0 42 1;
#X connect 32 0 40 1;
#X connect 33 0 36 0;
#X connect 33 0 39 0;
#X connect 33 0 117 0;
#X connect 34 0 113 0;
#X connect 35 0 27 1;
#X connect 35 0 29 1;
#X connect 36 0 35 0;
#X connect 37 0 32 0;
#X connect 38 0 33 1;
#X connect 39 0 38 0;
#X connect 40 0 47 0;
#X connect 41 0 46 0;
#X connect 42 0 45 0;
#X connect 43 0 44 0;
#X connect 44 0 41 1;
#X connect 47 0 41 0;
#X connect 47 0 42 0;
#X connect 48 0 49 0;
#X connect 49 0 50 0;
#X connect 50 0 47 1;
#X connect 51 0 52 0;
#X connect 52 0 109 0;
#X connect 53 0 33 0;
#X connect 54 0 106 0;
#X connect 55 0 54 0;
#X connect 55 0 56 0;
#X connect 56 0 57 0;
#X connect 57 0 58 0;
#X connect 58 0 64 0;
#X connect 58 0 69 0;
#X connect 58 0 67 1;
#X connect 59 0 106 1;
#X connect 60 0 63 0;
#X connect 60 0 66 0;
#X connect 60 0 118 0;
#X connect 61 0 114 0;
#X connect 62 0 54 1;
#X connect 62 0 56 1;
#X connect 63 0 62 0;
#X connect 64 0 59 0;
#X connect 65 0 60 1;
#X connect 66 0 65 0;
#X connect 67 0 72 0;
#X connect 68 0 71 0;
#X connect 69 0 70 0;
#X connect 70 0 68 1;
#X connect 73 0 67 0;
#X connect 73 0 68 0;
#X connect 74 0 75 0;
#X connect 75 0 76 0;
#X connect 76 0 73 1;
#X connect 77 0 78 0;
#X connect 78 0 110 0;
#X connect 79 0 60 0;
#X connect 80 0 107 0;
#X connect 81 0 80 0;
#X connect 81 0 82 0;
#X connect 82 0 83 0;
#X connect 83 0 84 0;
#X connect 84 0 90 0;
#X connect 84 0 95 0;
#X connect 84 0 94 1;
#X connect 85 0 107 1;
#X connect 86 0 89 0;
#X connect 86 0 92 0;
#X connect 86 0 119 0;
#X connect 87 0 115 0;
#X connect 88 0 80 1;
#X connect 88 0 82 1;
#X connect 89 0 88 0;
#X connect 90 0 85 0;
#X connect 91 0 86 1;
#X connect 92 0 91 0;
#X connect 93 0 98 0;
#X connect 94 0 97 0;
#X connect 95 0 96 0;
#X connect 96 0 93 1;
#X connect 99 0 93 0;
#X connect 99 0 94 0;
#X connect 100 0 101 0;
#X connect 101 0 102 0;
#X connect 102 0 99 1;
#X connect 103 0 104 0;
#X connect 104 0 111 0;
#X connect 105 0 86 0;
#X connect 106 0 73 0;
#X connect 107 0 99 0;
#X connect 108 0 26 0;
#X connect 109 0 53 0;
#X connect 110 0 79 0;
#X connect 111 0 105 0;
#X connect 112 0 12 0;
#X connect 113 0 39 0;
#X connect 114 0 66 0;
#X connect 115 0 92 0;
#X connect 116 0 21 0;
#X connect 117 0 48 0;
#X connect 118 0 74 0;
#X connect 119 0 100 0;
#X restore 72 12 pd DROPS1;
#N canvas 0 22 974 436 DROPS2 0;
#X obj 20 205 samphold~;
#X obj 20 188 noise~;
#X obj 133 205 samphold~;
#X obj 133 227 /~ 2;
#X obj 133 249 +~ 0.5;
#X obj 133 293 +~ 2500;
#X obj 71 100 metro;
#X obj 12 83 loadbang;
#X obj 71 188 line~;
#X msg 71 166 0 \, 1 1;
#X obj 133 271 *~ 4500;
#X obj 71 144 + 250;
#X obj 71 122 random 750;
#X obj 20 354 *~;
#X obj 120 354 *~;
#X obj 153 315 *~ -1;
#X obj 153 337 +~ 1;
#X obj 120 376 throw~ \$0-dac-R;
#X obj 20 376 throw~ \$0-dac-L;
#X obj 20 332 *~;
#X obj 192 271 * -1;
#X obj 192 293 + 100;
#X obj 192 315 dbtorms;
#X obj 71 12 r \$0-drop;
#X obj 71 34 i;
#X obj 71 78 change;
#X obj 250 205 samphold~;
#X obj 250 188 noise~;
#X obj 363 205 samphold~;
#X obj 363 227 /~ 2;
#X obj 363 249 +~ 0.5;
#X obj 363 293 +~ 2500;
#X obj 301 100 metro;
#X obj 242 83 loadbang;
#X obj 301 188 line~;
#X msg 301 166 0 \, 1 1;
#X obj 363 271 *~ 4500;
#X obj 301 144 + 250;
#X obj 301 122 random 750;
#X obj 250 354 *~;
#X obj 350 354 *~;
#X obj 303 315 *~ -1;
#X obj 303 337 +~ 1;
#X obj 350 376 throw~ \$0-dac-R;
#X obj 250 376 throw~ \$0-dac-L;
#X obj 250 332 *~;
#X obj 422 271 * -1;
#X obj 422 293 + 100;
#X obj 422 315 dbtorms;
#X obj 301 12 r \$0-drop;
#X obj 301 34 i;
#X obj 301 78 change;
#X obj 490 205 samphold~;
#X obj 490 188 noise~;
#X obj 603 205 samphold~;
#X obj 603 227 /~ 2;
#X obj 603 249 +~ 0.5;
#X obj 603 293 +~ 2500;
#X obj 541 100 metro;
#X obj 482 83 loadbang;
#X obj 541 188 line~;
#X msg 541 166 0 \, 1 1;
#X obj 603 271 *~ 4500;
#X obj 541 144 + 250;
#X obj 541 122 random 750;
#X obj 490 354 *~;
#X obj 590 354 *~;
#X obj 623 315 *~ -1;
#X obj 623 337 +~ 1;
#X obj 590 376 throw~ \$0-dac-R;
#X obj 490 376 throw~ \$0-dac-L;
#X obj 490 332 *~;
#X obj 662 271 * -1;
#X obj 662 293 + 100;
#X obj 662 315 dbtorms;
#X obj 541 12 r \$0-drop;
#X obj 541 34 i;
#X obj 541 78 change;
#X obj 720 205 samphold~;
#X obj 720 188 noise~;
#X obj 833 205 samphold~;
#X obj 833 227 /~ 2;
#X obj 833 249 +~ 0.5;
#X obj 833 293 +~ 2500;
#X obj 771 100 metro;
#X obj 712 83 loadbang;
#X obj 771 188 line~;
#X msg 771 166 0 \, 1 1;
#X obj 833 271 *~ 4500;
#X obj 771 144 + 250;
#X obj 771 122 random 750;
#X obj 720 354 *~;
#X obj 820 354 *~;
#X obj 773 315 *~ -1;
#X obj 773 337 +~ 1;
#X obj 820 376 throw~ \$0-dac-R;
#X obj 720 376 throw~ \$0-dac-L;
#X obj 720 332 *~;
#X obj 892 271 * -1;
#X obj 892 293 + 100;
#X obj 892 315 dbtorms;
#X obj 771 12 r \$0-drop;
#X obj 771 34 i;
#X obj 771 78 change;
#X obj 20 310 vcf~ 42;
#X obj 250 310 vcf~ 42;
#X obj 490 310 vcf~ 49;
#X obj 720 310 vcf~ 49;
#X obj 71 56 >= 21;
#X obj 301 56 >= 22;
#X obj 541 56 >= 23;
#X obj 771 56 >= 24;
#X msg 12 105 seed 505;
#X msg 242 105 seed 605;
#X msg 482 105 seed 705;
#X msg 712 105 seed 805;
#X obj 192 249 random 50;
#X obj 422 249 random 50;
#X obj 662 249 random 50;
#X obj 892 249 random 50;
#X connect 0 0 104 0;
#X connect 1 0 0 0;
#X connect 1 0 2 0;
#X connect 2 0 3 0;
#X connect 3 0 4 0;
#X connect 4 0 10 0;
#X connect 4 0 15 0;
#X connect 4 0 13 1;
#X connect 5 0 104 1;
#X connect 6 0 9 0;
#X connect 6 0 12 0;
#X connect 6 0 116 0;
#X connect 7 0 112 0;
#X connect 8 0 0 1;
#X connect 8 0 2 1;
#X connect 9 0 8 0;
#X connect 10 0 5 0;
#X connect 11 0 6 1;
#X connect 12 0 11 0;
#X connect 13 0 18 0;
#X connect 14 0 17 0;
#X connect 15 0 16 0;
#X connect 16 0 14 1;
#X connect 19 0 13 0;
#X connect 19 0 14 0;
#X connect 20 0 21 0;
#X connect 21 0 22 0;
#X connect 22 0 19 1;
#X connect 23 0 24 0;
#X connect 24 0 108 0;
#X connect 25 0 6 0;
#X connect 26 0 105 0;
#X connect 27 0 26 0;
#X connect 27 0 28 0;
#X connect 28 0 29 0;
#X connect 29 0 30 0;
#X connect 30 0 36 0;
#X connect 30 0 41 0;
#X connect 30 0 40 1;
#X connect 31 0 105 1;
#X connect 32 0 35 0;
#X connect 32 0 38 0;
#X connect 32 0 117 0;
#X connect 33 0 113 0;
#X connect 34 0 26 1;
#X connect 34 0 28 1;
#X connect 35 0 34 0;
#X connect 36 0 31 0;
#X connect 37 0 32 1;
#X connect 38 0 37 0;
#X connect 39 0 44 0;
#X connect 40 0 43 0;
#X connect 41 0 42 0;
#X connect 42 0 39 1;
#X connect 45 0 39 0;
#X connect 45 0 40 0;
#X connect 46 0 47 0;
#X connect 47 0 48 0;
#X connect 48 0 45 1;
#X connect 49 0 50 0;
#X connect 50 0 109 0;
#X connect 51 0 32 0;
#X connect 52 0 106 0;
#X connect 53 0 52 0;
#X connect 53 0 54 0;
#X connect 54 0 55 0;
#X connect 55 0 56 0;
#X connect 56 0 62 0;
#X connect 56 0 67 0;
#X connect 56 0 65 1;
#X connect 57 0 106 1;
#X connect 58 0 61 0;
#X connect 58 0 64 0;
#X connect 58 0 118 0;
#X connect 59 0 114 0;
#X connect 60 0 52 1;
#X connect 60 0 54 1;
#X connect 61 0 60 0;
#X connect 62 0 57 0;
#X connect 63 0 58 1;
#X connect 64 0 63 0;
#X connect 65 0 70 0;
#X connect 66 0 69 0;
#X connect 67 0 68 0;
#X connect 68 0 66 1;
#X connect 71 0 65 0;
#X connect 71 0 66 0;
#X connect 72 0 73 0;
#X connect 73 0 74 0;
#X connect 74 0 71 1;
#X connect 75 0 76 0;
#X connect 76 0 110 0;
#X connect 77 0 58 0;
#X connect 78 0 107 0;
#X connect 79 0 78 0;
#X connect 79 0 80 0;
#X connect 80 0 81 0;
#X connect 81 0 82 0;
#X connect 82 0 88 0;
#X connect 82 0 93 0;
#X connect 82 0 92 1;
#X connect 83 0 107 1;
#X connect 84 0 87 0;
#X connect 84 0 90 0;
#X connect 84 0 119 0;
#X connect 85 0 115 0;
#X connect 86 0 78 1;
#X connect 86 0 80 1;
#X connect 87 0 86 0;
#X connect 88 0 83 0;
#X connect 89 0 84 1;
#X connect 90 0 89 0;
#X connect 91 0 96 0;
#X connect 92 0 95 0;
#X connect 93 0 94 0;
#X connect 94 0 91 1;
#X connect 97 0 91 0;
#X connect 97 0 92 0;
#X connect 98 0 99 0;
#X connect 99 0 100 0;
#X connect 100 0 97 1;
#X connect 101 0 102 0;
#X connect 102 0 111 0;
#X connect 103 0 84 0;
#X connect 104 0 19 0;
#X connect 105 0 45 0;
#X connect 106 0 71 0;
#X connect 107 0 97 0;
#X connect 108 0 25 0;
#X connect 109 0 51 0;
#X connect 110 0 77 0;
#X connect 111 0 103 0;
#X connect 112 0 12 0;
#X connect 113 0 38 0;
#X connect 114 0 64 0;
#X connect 115 0 90 0;
#X connect 116 0 20 0;
#X connect 117 0 46 0;
#X connect 118 0 72 0;
#X connect 119 0 98 0;
#X restore 72 32 pd DROPS2;
#N canvas 0 22 974 436 DROPS3 0;
#X obj 20 205 samphold~;
#X obj 20 188 noise~;
#X obj 133 205 samphold~;
#X obj 133 227 /~ 2;
#X obj 133 249 +~ 0.5;
#X obj 133 293 +~ 2500;
#X obj 71 100 metro;
#X obj 12 83 loadbang;
#X obj 71 188 line~;
#X msg 71 166 0 \, 1 1;
#X obj 133 271 *~ 4500;
#X obj 71 144 + 250;
#X obj 71 122 random 750;
#X obj 20 354 *~;
#X obj 120 354 *~;
#X obj 153 315 *~ -1;
#X obj 153 337 +~ 1;
#X obj 120 376 throw~ \$0-dac-R;
#X obj 20 376 throw~ \$0-dac-L;
#X obj 20 332 *~;
#X obj 192 271 * -1;
#X obj 192 293 + 100;
#X obj 192 315 dbtorms;
#X obj 71 12 r \$0-drop;
#X obj 71 34 i;
#X obj 71 78 change;
#X obj 250 205 samphold~;
#X obj 250 188 noise~;
#X obj 363 205 samphold~;
#X obj 363 227 /~ 2;
#X obj 363 249 +~ 0.5;
#X obj 363 293 +~ 2500;
#X obj 301 100 metro;
#X obj 242 83 loadbang;
#X obj 301 188 line~;
#X msg 301 166 0 \, 1 1;
#X obj 363 271 *~ 4500;
#X obj 301 144 + 250;
#X obj 301 122 random 750;
#X obj 250 354 *~;
#X obj 350 354 *~;
#X obj 303 315 *~ -1;
#X obj 303 337 +~ 1;
#X obj 350 376 throw~ \$0-dac-R;
#X obj 250 376 throw~ \$0-dac-L;
#X obj 250 332 *~;
#X obj 422 271 * -1;
#X obj 422 293 + 100;
#X obj 422 315 dbtorms;
#X obj 301 12 r \$0-drop;
#X obj 301 34 i;
#X obj 301 78 change;
#X obj 490 205 samphold~;
#X obj 490 188 noise~;
#X obj 603 205 samphold~;
#X obj 603 227 /~ 2;
#X obj 603 249 +~ 0.5;
#X obj 603 293 +~ 2500;
#X obj 541 100 metro;
#X obj 482 83 loadbang;
#X obj 541 188 line~;
#X msg 541 166 0 \, 1 1;
#X obj 603 271 *~ 4500;
#X obj 541 144 + 250;
#X obj 541 122 random 750;
#X obj 490 354 *~;
#X obj 590 354 *~;
#X obj 623 315 *~ -1;
#X obj 623 337 +~ 1;
#X obj 590 376 throw~ \$0-dac-R;
#X obj 490 376 throw~ \$0-dac-L;
#X obj 490 332 *~;
#X obj 662 271 * -1;
#X obj 662 293 + 100;
#X obj 662 315 dbtorms;
#X obj 541 12 r \$0-drop;
#X obj 541 34 i;
#X obj 541 78 change;
#X obj 720 205 samphold~;
#X obj 720 188 noise~;
#X obj 833 205 samphold~;
#X obj 833 227 /~ 2;
#X obj 833 249 +~ 0.5;
#X obj 833 293 +~ 2500;
#X obj 771 100 metro;
#X obj 712 83 loadbang;
#X obj 771 188 line~;
#X msg 771 166 0 \, 1 1;
#X obj 833 271 *~ 4500;
#X obj 771 144 + 250;
#X obj 771 122 random 750;
#X obj 720 354 *~;
#X obj 820 354 *~;
#X obj 773 315 *~ -1;
#X obj 773 337 +~ 1;
#X obj 820 376 throw~ \$0-dac-R;
#X obj 720 376 throw~ \$0-dac-L;
#X obj 720 332 *~;
#X obj 892 271 * -1;
#X obj 892 293 + 100;
#X obj 892 315 dbtorms;
#X obj 771 12 r \$0-drop;
#X obj 771 34 i;
#X obj 771 78 change;
#X obj 20 310 vcf~ 56;
#X obj 250 310 vcf~ 56;
#X obj 490 310 vcf~ 63;
#X obj 720 310 vcf~ 63;
#X obj 71 56 >= 25;
#X obj 301 56 >= 26;
#X obj 541 56 >= 27;
#X obj 771 56 >= 28;
#X msg 12 105 seed 155;
#X msg 242 105 seed 255;
#X msg 482 105 seed 355;
#X msg 712 105 seed 455;
#X obj 192 249 random 50;
#X obj 422 249 random 50;
#X obj 662 249 random 50;
#X obj 892 249 random 50;
#X connect 0 0 104 0;
#X connect 1 0 0 0;
#X connect 1 0 2 0;
#X connect 2 0 3 0;
#X connect 3 0 4 0;
#X connect 4 0 10 0;
#X connect 4 0 15 0;
#X connect 4 0 13 1;
#X connect 5 0 104 1;
#X connect 6 0 9 0;
#X connect 6 0 12 0;
#X connect 6 0 116 0;
#X connect 7 0 112 0;
#X connect 8 0 0 1;
#X connect 8 0 2 1;
#X connect 9 0 8 0;
#X connect 10 0 5 0;
#X connect 11 0 6 1;
#X connect 12 0 11 0;
#X connect 13 0 18 0;
#X connect 14 0 17 0;
#X connect 15 0 16 0;
#X connect 16 0 14 1;
#X connect 19 0 13 0;
#X connect 19 0 14 0;
#X connect 20 0 21 0;
#X connect 21 0 22 0;
#X connect 22 0 19 1;
#X connect 23 0 24 0;
#X connect 24 0 108 0;
#X connect 25 0 6 0;
#X connect 26 0 105 0;
#X connect 27 0 26 0;
#X connect 27 0 28 0;
#X connect 28 0 29 0;
#X connect 29 0 30 0;
#X connect 30 0 36 0;
#X connect 30 0 41 0;
#X connect 30 0 40 1;
#X connect 31 0 105 1;
#X connect 32 0 35 0;
#X connect 32 0 38 0;
#X connect 32 0 117 0;
#X connect 33 0 113 0;
#X connect 34 0 26 1;
#X connect 34 0 28 1;
#X connect 35 0 34 0;
#X connect 36 0 31 0;
#X connect 37 0 32 1;
#X connect 38 0 37 0;
#X connect 39 0 44 0;
#X connect 40 0 43 0;
#X connect 41 0 42 0;
#X connect 42 0 39 1;
#X connect 45 0 39 0;
#X connect 45 0 40 0;
#X connect 46 0 47 0;
#X connect 47 0 48 0;
#X connect 48 0 45 1;
#X connect 49 0 50 0;
#X connect 50 0 109 0;
#X connect 51 0 32 0;
#X connect 52 0 106 0;
#X connect 53 0 52 0;
#X connect 53 0 54 0;
#X connect 54 0 55 0;
#X connect 55 0 56 0;
#X connect 56 0 62 0;
#X connect 56 0 67 0;
#X connect 56 0 65 1;
#X connect 57 0 106 1;
#X connect 58 0 61 0;
#X connect 58 0 64 0;
#X connect 58 0 118 0;
#X connect 59 0 114 0;
#X connect 60 0 52 1;
#X connect 60 0 54 1;
#X connect 61 0 60 0;
#X connect 62 0 57 0;
#X connect 63 0 58 1;
#X connect 64 0 63 0;
#X connect 65 0 70 0;
#X connect 66 0 69 0;
#X connect 67 0 68 0;
#X connect 68 0 66 1;
#X connect 71 0 65 0;
#X connect 71 0 66 0;
#X connect 72 0 73 0;
#X connect 73 0 74 0;
#X connect 74 0 71 1;
#X connect 75 0 76 0;
#X connect 76 0 110 0;
#X connect 77 0 58 0;
#X connect 78 0 107 0;
#X connect 79 0 78 0;
#X connect 79 0 80 0;
#X connect 80 0 81 0;
#X connect 81 0 82 0;
#X connect 82 0 88 0;
#X connect 82 0 93 0;
#X connect 82 0 92 1;
#X connect 83 0 107 1;
#X connect 84 0 87 0;
#X connect 84 0 90 0;
#X connect 84 0 119 0;
#X connect 85 0 115 0;
#X connect 86 0 78 1;
#X connect 86 0 80 1;
#X connect 87 0 86 0;
#X connect 88 0 83 0;
#X connect 89 0 84 1;
#X connect 90 0 89 0;
#X connect 91 0 96 0;
#X connect 92 0 95 0;
#X connect 93 0 94 0;
#X connect 94 0 91 1;
#X connect 97 0 91 0;
#X connect 97 0 92 0;
#X connect 98 0 99 0;
#X connect 99 0 100 0;
#X connect 100 0 97 1;
#X connect 101 0 102 0;
#X connect 102 0 111 0;
#X connect 103 0 84 0;
#X connect 104 0 19 0;
#X connect 105 0 45 0;
#X connect 106 0 71 0;
#X connect 107 0 97 0;
#X connect 108 0 25 0;
#X connect 109 0 51 0;
#X connect 110 0 77 0;
#X connect 111 0 103 0;
#X connect 112 0 12 0;
#X connect 113 0 38 0;
#X connect 114 0 64 0;
#X connect 115 0 90 0;
#X connect 116 0 20 0;
#X connect 117 0 46 0;
#X connect 118 0 72 0;
#X connect 119 0 98 0;
#X restore 72 52 pd DROPS3;
#N canvas 0 22 974 436 DROPS4 0;
#X obj 20 205 samphold~;
#X obj 20 188 noise~;
#X obj 133 205 samphold~;
#X obj 133 227 /~ 2;
#X obj 133 249 +~ 0.5;
#X obj 133 293 +~ 2500;
#X obj 71 100 metro;
#X obj 12 83 loadbang;
#X obj 71 188 line~;
#X msg 71 166 0 \, 1 1;
#X obj 133 271 *~ 4500;
#X obj 71 144 + 250;
#X obj 71 122 random 750;
#X obj 20 354 *~;
#X obj 120 354 *~;
#X obj 153 315 *~ -1;
#X obj 153 337 +~ 1;
#X obj 120 376 throw~ \$0-dac-R;
#X obj 20 376 throw~ \$0-dac-L;
#X obj 20 332 *~;
#X obj 192 271 * -1;
#X obj 192 293 + 100;
#X obj 192 315 dbtorms;
#X obj 71 12 r \$0-drop;
#X obj 71 34 i;
#X obj 71 78 change;
#X obj 250 205 samphold~;
#X obj 250 188 noise~;
#X obj 363 205 samphold~;
#X obj 363 227 /~ 2;
#X obj 363 249 +~ 0.5;
#X obj 363 293 +~ 2500;
#X obj 301 100 metro;
#X obj 242 83 loadbang;
#X obj 301 188 line~;
#X msg 301 166 0 \, 1 1;
#X obj 363 271 *~ 4500;
#X obj 301 144 + 250;
#X obj 301 122 random 750;
#X obj 250 354 *~;
#X obj 350 354 *~;
#X obj 303 315 *~ -1;
#X obj 303 337 +~ 1;
#X obj 350 376 throw~ \$0-dac-R;
#X obj 250 376 throw~ \$0-dac-L;
#X obj 250 332 *~;
#X obj 422 271 * -1;
#X obj 422 293 + 100;
#X obj 422 315 dbtorms;
#X obj 301 12 r \$0-drop;
#X obj 301 34 i;
#X obj 301 78 change;
#X obj 490 205 samphold~;
#X obj 490 188 noise~;
#X obj 603 205 samphold~;
#X obj 603 227 /~ 2;
#X obj 603 249 +~ 0.5;
#X obj 603 293 +~ 2500;
#X obj 541 100 metro;
#X obj 482 83 loadbang;
#X obj 541 188 line~;
#X msg 541 166 0 \, 1 1;
#X obj 603 271 *~ 4500;
#X obj 541 144 + 250;
#X obj 541 122 random 750;
#X obj 490 354 *~;
#X obj 590 354 *~;
#X obj 623 315 *~ -1;
#X obj 623 337 +~ 1;
#X obj 590 376 throw~ \$0-dac-R;
#X obj 490 376 throw~ \$0-dac-L;
#X obj 490 332 *~;
#X obj 662 271 * -1;
#X obj 662 293 + 100;
#X obj 662 315 dbtorms;
#X obj 541 12 r \$0-drop;
#X obj 541 34 i;
#X obj 541 78 change;
#X obj 720 205 samphold~;
#X obj 720 188 noise~;
#X obj 833 205 samphold~;
#X obj 833 227 /~ 2;
#X obj 833 249 +~ 0.5;
#X obj 833 293 +~ 2500;
#X obj 771 100 metro;
#X obj 712 83 loadbang;
#X obj 771 188 line~;
#X msg 771 166 0 \, 1 1;
#X obj 833 271 *~ 4500;
#X obj 771 144 + 250;
#X obj 771 122 random 750;
#X obj 720 354 *~;
#X obj 820 354 *~;
#X obj 773 315 *~ -1;
#X obj 773 337 +~ 1;
#X obj 820 376 throw~ \$0-dac-R;
#X obj 720 376 throw~ \$0-dac-L;
#X obj 720 332 *~;
#X obj 892 271 * -1;
#X obj 892 293 + 100;
#X obj 892 315 dbtorms;
#X obj 771 12 r \$0-drop;
#X obj 771 34 i;
#X obj 771 78 change;
#X obj 20 310 vcf~ 28;
#X obj 250 310 vcf~ 28;
#X obj 720 310 vcf~ 35;
#X obj 490 310 vcf~ 35;
#X obj 71 56 >= 29;
#X obj 301 56 >= 30;
#X obj 541 56 >= 31;
#X obj 771 56 >= 32;
#X msg 12 105 seed 555;
#X msg 242 105 seed 655;
#X msg 482 105 seed 755;
#X msg 712 105 seed 855;
#X obj 192 249 random 50;
#X obj 422 249 random 50;
#X obj 662 249 random 50;
#X obj 892 249 random 50;
#X connect 0 0 104 0;
#X connect 1 0 0 0;
#X connect 1 0 2 0;
#X connect 2 0 3 0;
#X connect 3 0 4 0;
#X connect 4 0 10 0;
#X connect 4 0 15 0;
#X connect 4 0 13 1;
#X connect 5 0 104 1;
#X connect 6 0 9 0;
#X connect 6 0 12 0;
#X connect 6 0 116 0;
#X connect 7 0 112 0;
#X connect 8 0 0 1;
#X connect 8 0 2 1;
#X connect 9 0 8 0;
#X connect 10 0 5 0;
#X connect 11 0 6 1;
#X connect 12 0 11 0;
#X connect 13 0 18 0;
#X connect 14 0 17 0;
#X connect 15 0 16 0;
#X connect 16 0 14 1;
#X connect 19 0 13 0;
#X connect 19 0 14 0;
#X connect 20 0 21 0;
#X connect 21 0 22 0;
#X connect 22 0 19 1;
#X connect 23 0 24 0;
#X connect 24 0 108 0;
#X connect 25 0 6 0;
#X connect 26 0 105 0;
#X connect 27 0 26 0;
#X connect 27 0 28 0;
#X connect 28 0 29 0;
#X connect 29 0 30 0;
#X connect 30 0 36 0;
#X connect 30 0 41 0;
#X connect 30 0 40 1;
#X connect 31 0 105 1;
#X connect 32 0 35 0;
#X connect 32 0 38 0;
#X connect 32 0 117 0;
#X connect 33 0 113 0;
#X connect 34 0 26 1;
#X connect 34 0 28 1;
#X connect 35 0 34 0;
#X connect 36 0 31 0;
#X connect 37 0 32 1;
#X connect 38 0 37 0;
#X connect 39 0 44 0;
#X connect 40 0 43 0;
#X connect 41 0 42 0;
#X connect 42 0 39 1;
#X connect 45 0 39 0;
#X connect 45 0 40 0;
#X connect 46 0 47 0;
#X connect 47 0 48 0;
#X connect 48 0 45 1;
#X connect 49 0 50 0;
#X connect 50 0 109 0;
#X connect 51 0 32 0;
#X connect 52 0 107 0;
#X connect 53 0 52 0;
#X connect 53 0 54 0;
#X connect 54 0 55 0;
#X connect 55 0 56 0;
#X connect 56 0 62 0;
#X connect 56 0 67 0;
#X connect 56 0 65 1;
#X connect 57 0 107 1;
#X connect 58 0 61 0;
#X connect 58 0 64 0;
#X connect 58 0 118 0;
#X connect 59 0 114 0;
#X connect 60 0 52 1;
#X connect 60 0 54 1;
#X connect 61 0 60 0;
#X connect 62 0 57 0;
#X connect 63 0 58 1;
#X connect 64 0 63 0;
#X connect 65 0 70 0;
#X connect 66 0 69 0;
#X connect 67 0 68 0;
#X connect 68 0 66 1;
#X connect 71 0 65 0;
#X connect 71 0 66 0;
#X connect 72 0 73 0;
#X connect 73 0 74 0;
#X connect 74 0 71 1;
#X connect 75 0 76 0;
#X connect 76 0 110 0;
#X connect 77 0 58 0;
#X connect 78 0 106 0;
#X connect 79 0 78 0;
#X connect 79 0 80 0;
#X connect 80 0 81 0;
#X connect 81 0 82 0;
#X connect 82 0 88 0;
#X connect 82 0 93 0;
#X connect 82 0 92 1;
#X connect 83 0 106 1;
#X connect 84 0 87 0;
#X connect 84 0 90 0;
#X connect 84 0 119 0;
#X connect 85 0 115 0;
#X connect 86 0 78 1;
#X connect 86 0 80 1;
#X connect 87 0 86 0;
#X connect 88 0 83 0;
#X connect 89 0 84 1;
#X connect 90 0 89 0;
#X connect 91 0 96 0;
#X connect 92 0 95 0;
#X connect 93 0 94 0;
#X connect 94 0 91 1;
#X connect 97 0 91 0;
#X connect 97 0 92 0;
#X connect 98 0 99 0;
#X connect 99 0 100 0;
#X connect 100 0 97 1;
#X connect 101 0 102 0;
#X connect 102 0 111 0;
#X connect 103 0 84 0;
#X connect 104 0 19 0;
#X connect 105 0 45 0;
#X connect 106 0 97 0;
#X connect 107 0 71 0;
#X connect 108 0 25 0;
#X connect 109 0 51 0;
#X connect 110 0 77 0;
#X connect 111 0 103 0;
#X connect 112 0 12 0;
#X connect 113 0 38 0;
#X connect 114 0 64 0;
#X connect 115 0 90 0;
#X connect 116 0 20 0;
#X connect 117 0 46 0;
#X connect 118 0 72 0;
#X connect 119 0 98 0;
#X restore 72 72 pd DROPS4;
#X obj 140 12 r DROPS @hv_param 0 32 0;
#X obj 12 116 hip~ 3;
#X obj 122 116 hip~ 3;
#X connect 0 0 14 0;
#X connect 1 0 15 0;
#X connect 4 0 5 0;
#X connect 13 0 4 0;
#X connect 14 0 2 0;
#X connect 15 0 2 1;
